<?xml version="1.0" standalone="no"?>
<!DOCTYPE svg PUBLIC "-//W3C//DTD SVG 1.1//EN"
  "http://www.w3.org/Graphics/SVG/1.1/DTD/svg11.dtd">
<svg width="146.26900482177734mm" height="96.07999801635741mm" viewBox="-73.13300323486328 -48.04299926757812 146.26900482177734 96.07999801635741" xmlns="http://www.w3.org/2000/svg" version="1.1">
	<title>svgOutput</title>
	<desc>made with tinkercad</desc>
<path d="M 62.729000091552734 -14.048000335693356 L 56.325218200683594 -14.004938125610348 L 43.694000244140625 -13.920000076293942 L 43.51408767700195 -13.814429283142086 L 0 11.719089508056639 L -56.76481628417969 45.027969360351555 L -58.11800003051758 45.8219985961914 L -58.60886001586914 46.086162567138665 L -58.631439208984375 46.098091125488274 L -58.63585662841797 46.1004295349121 L -58.656864166259766 46.10949325561523 L -59.33599853515625 46.41400146484374 L -60.06800079345703 46.66899871826171 L -60.81999969482422 46.85800170898437 L -61.584999084472656 46.980998992919915 L -62.356998443603516 47.03699874877929 L -63.13199996948242 47.0250015258789 L -63.90299987792969 46.945999145507805 L -64.66400146484375 46.79999923706054 L -65.40899658203125 46.588001251220696 L -65.53600311279297 46.53958511352538 L -66.13300323486328 46.312000274658196 L -66.16046905517578 46.29867935180663 L -67.15260314941406 45.7901382446289 L -67.15371704101562 45.789566040039055 L -67.77521514892578 45.37939834594726 L -67.81764221191406 45.35140991210937 L -67.82617950439453 45.34577560424804 L -67.85991668701172 45.31483840942382 L -68.9847640991211 44.3417625427246 L -69.4794692993164 43.784622192382805 L -69.50938415527344 43.74993896484374 L -70.10301971435547 42.91711044311523 L -70.11820220947266 42.89465332031249 L -70.12012481689453 42.89180755615234 L -70.15316009521484 42.83544540405273 L -71.01000213623047 41.3839988708496 L -71.22291564941406 40.95999908447265 L -71.35800170898438 40.69100189208984 L -71.64299774169922 39.97100067138671 L -71.86499786376953 39.22800064086913 L -72.02100372314453 38.467998504638665 L -72.11100006103516 37.69800186157226 L -72.13300323486328 36.92300033569335 L -72.10700225830078 36.34199905395507 L -72.01100158691406 35.5719985961914 L -71.8489990234375 34.81399917602538 L -71.62100219726562 34.07300186157226 L -71.3290023803711 33.35400009155273 L -71.02920532226562 32.76800155639648 L -70.97599792480469 32.66400146484374 L -70.95976257324219 32.638103485107415 L -70.66582489013672 32.16261672973632 L -70.64737701416016 32.13825607299804 L -70.64016723632812 32.128459930419915 L -70.09600067138672 31.388999938964837 L -70.07550811767578 31.366298675537102 L -69.99002075195312 31.270212173461907 L -69.7037582397461 30.948442459106438 L -69.68141174316406 30.92767143249511 L -69.66778564453125 30.914667129516594 L -69.00900268554688 30.285999298095696 L -68.98487854003906 30.267200469970696 L -68.8911361694336 30.193151473999016 L -68.54589080810547 29.920427322387688 L -68.52023315429688 29.903835296630852 L -68.50950622558594 29.89668655395507 L -67.74600219726562 29.388000488281243 L -67.49329376220703 29.239715576171868 L -65.53600311279297 28.091209411621087 L -17.662778854370117 1.1102230246251565e-16 L -1.9954351349439972e-15 -10.36422538757324 L 33.93804168701172 -30.278503417968743 L 34.064998626708984 -30.353000640869134 L 40.36534118652344 -41.44473266601562 L 43.47200012207031 -46.91400146484374 L 62.50699996948242 -47.04299926757812 L 68.95677185058594 -36.03504562377929 L 72.13600158691406 -30.60899925231933 L 68.97096252441406 -25.036962509155266 L 62.729000091552734 -14.048000335693356 M 49.909000396728516 -35.969001770019524 L 46.755001068115234 -30.458999633789055 L 49.946998596191406 -24.97100067138671 L 56.29199981689453 -24.99300003051757 L 59.44599914550781 -30.503000259399407 L 56.25400161743164 -35.99100112915038 L 49.909000396728516 -35.969001770019524 M 40.29499816894531 -19.34900093078613 L 37.10300064086914 -24.83699989318847 L 0 -3.225620508193969 L -5.537832736968994 1.1102230246251565e-16 L -63.36399841308594 33.68199920654296 L -60.172000885009766 39.169998168945305 L 1.0185520368756126e-15 4.121623039245605 L 40.29499816894531 -19.34900093078613 z" fill="none" stroke="rgb(255,0,0)" stroke-width="0.001mm" />
</svg>